<svg width="275" height="411" version="1.1" xmlns="http://www.w3.org/2000/svg" desc="Created with imagetracer.js version 1.2.6" ><path fill="rgb(0,0,0)" stroke="rgb(0,0,0)" stroke-width="1" opacity="0" d="M 0 0 L 128 0.5 L 117.5 1 L 101.5 4 L 75.5 13 Q 49.5 25 31 44.5 Q 18 58 10 76.5 L 3 98.5 L 0.5 120 L 0 0 Z " /><path fill="rgb(0,0,0)" stroke="rgb(0,0,0)" stroke-width="1" opacity="0" d="M 148.5 0 L 275 0 L 275 121.5 L 274 121.5 L 274 112.5 L 272 101.5 L 262 73.5 Q 249.5 50.5 230.5 34 Q 214.5 20 193.5 11 L 176.5 5 L 157.5 1 L 148.5 1 L 148.5 0 Z " /><path fill="rgb(0,0,0)" stroke="rgb(0,0,0)" stroke-width="1" opacity="0" d="M 132.5 12 L 158.5 13 L 172.5 16 L 189.5 22 Q 218.6 34.4 237 57.5 Q 252.2 75.3 260 100.5 L 264 119.5 L 264 141.5 L 261 156.5 L 250 183.5 L 236 208.5 L 214 240.5 L 199 266.5 L 203 263.5 L 234 221.5 L 262 176.5 L 272 152.5 L 274.5 136 L 275 411 L 158 410.5 L 169 399.5 L 169 375 L 112 375 L 112 399.5 L 122.5 411 L 0 411 L 0 131.5 L 1 131.5 L 1 141.5 L 4 156.5 L 16 184.5 L 40 215.5 L 72 248.5 L 85 264.5 L 93 285.5 L 95 302.5 L 96 303.5 L 96 314.5 L 97.5 318 L 98 288.5 L 95 275.5 L 85 256.5 Q 64 227.5 39 202.5 L 24 180.5 Q 16 166.5 12 148.5 L 11 134.5 L 10 133.5 L 10 119.5 L 11 118.5 L 11 111.5 L 13 101.5 L 22 78.5 Q 32.9 58.4 49.5 44 Q 65.5 30 86.5 21 L 107.5 15 L 131.5 13 L 132.5 12 Z M 82 131 L 67 135 L 57 141 Q 49 146 47 156 Q 46 160 48 160 L 122 160 L 122 265 L 116 271 L 116 316 L 122 326 L 130 329 L 152 329 L 158 326 L 164 319 L 166 311 L 166 273 L 158 265 L 158 168 L 159 167 L 159 160 L 205 160 L 220 156 L 230 150 Q 236 145 239 137 Q 240 131 239 131 L 82 131 Z M 95 330 L 95 362 L 106 372 L 177 372 L 186 363 L 186 330 L 95 330 Z " /><path fill="rgb(0,0,0)" stroke="rgb(0,0,0)" stroke-width="1" opacity="0" d="M 162 272 L 164 272.5 L 164 311.5 L 162.5 316 L 162 272 Z " /><path fill="rgb(0,0,0)" stroke="rgb(0,0,0)" stroke-width="1" opacity="0" d="M 180 332 L 184 332.5 L 184 361.5 L 180 364.5 L 180 332 Z " /><path fill="rgb(0,0,0)" stroke="rgb(0,0,0)" stroke-width="1" opacity="0" d="M 165 377 L 167 377.5 L 167 399 L 165 398.5 L 165 377 Z " /><path fill="rgb(218,191,70)" stroke="rgb(218,191,70)" stroke-width="1" opacity="0.9450980392156862" d="M 128.5 0 L 147.5 0 L 148.5 1 L 163.5 2 L 193.5 11 Q 224.6 24.4 245 48.5 Q 257.9 63.1 266 82.5 L 273 106.5 L 274 121.5 L 275 122.5 L 275 135.5 L 272 152.5 L 258 183.5 L 234 221.5 L 199.5 267 L 199 265.5 Q 216 235.5 236 208.5 L 252 179.5 Q 259 165.5 263 148.5 Q 261.5 143 264 141.5 L 264 119.5 L 260 100.5 L 250 76.5 Q 237.9 55.1 219.5 40 Q 200.2 23.8 172.5 16 L 149.5 12 L 132.5 12 L 131.5 13 L 107.5 15 L 86.5 21 Q 56.7 33.7 37 56.5 Q 24.6 70.6 17 89.5 L 11 111.5 L 10 133.5 L 14 156.5 L 24 180.5 L 39 202.5 L 80 249.5 L 95 275.5 L 98 288.5 L 98 317.5 L 97 317.5 L 93 285.5 L 85 264.5 L 72 248.5 L 28 201.5 Q 16.5 188 9 170.5 L 2 147.5 L 0 120.5 L 1 119.5 L 1 109.5 L 3 98.5 L 10 76.5 Q 19.9 54.4 36.5 39 Q 53.3 23.3 75.5 13 L 101.5 4 L 117.5 1 L 127.5 1 L 128.5 0 Z " /><path fill="rgb(218,191,70)" stroke="rgb(218,191,70)" stroke-width="1" opacity="0.9450980392156862" d="M 81.5 131 L 238.5 131 Q 239.6 131.1 239 136.5 Q 236.2 145.2 229.5 150 L 219.5 156 L 204.5 160 L 159 160 L 159 166.5 L 158 167.5 L 158 264.5 L 166 272.5 L 166 310.5 L 164 318.5 L 157.5 326 L 151.5 329 L 129.5 329 L 122 326 L 116 315.5 L 116 270.5 L 122 264.5 L 122 160 L 47.5 160 Q 46.5 160 47 155.5 Q 49.1 145.6 56.5 141 L 66.5 135 L 81.5 131 Z M 162 272 L 163 316 L 164 312 L 164 273 L 162 272 Z " /><path fill="rgb(218,191,70)" stroke="rgb(218,191,70)" stroke-width="1" opacity="0.9450980392156862" d="M 95 330 L 186 330 L 186 362.5 L 176.5 372 L 105.5 372 L 95 361.5 L 95 330 Z M 180 332 L 180 365 L 184 362 L 184 333 L 180 332 Z " /><path fill="rgb(218,191,70)" stroke="rgb(218,191,70)" stroke-width="1" opacity="0.9450980392156862" d="M 112 375 L 169 375 L 169 399.5 L 157.5 411 L 123.5 411 L 112 399.5 L 112 375 Z M 165 377 L 165 399 L 167 399 L 167 378 L 165 377 Z " /></svg>